Coordinates
version=1
nRows=12
nColumns=24
inDegrees=yes

Units are S.I. units (second, meters, Newtons, ...)
Angles are in degrees.

endheader
time	pelvis_tilt	pelvis_list	pelvis_rotation	pelvis_tx	pelvis_ty	pelvis_tz	hip_flexion_r	hip_adduction_r	hip_rotation_r	knee_angle_r	ankle_angle_r	subtalar_angle_r	mtp_angle_r	hip_flexion_l	hip_adduction_l	hip_rotation_l	knee_angle_l	ankle_angle_l	subtalar_angle_l	mtp_angle_l	lumbar_extension	lumbar_bending	lumbar_rotation
      3.71000000	     -8.13866568	     -2.01313688	      1.56526351	     -0.74621781	     -0.01349163	      0.68807153	      4.99598838	      3.04222563	      8.29333548	    -16.55692337	      9.25049267	     -6.65204999	      6.95843029	     40.10561940	     -2.09286471	     -3.87763544	    -54.55740508	     -4.97071100	      0.40794311	      6.91172199	      4.57404276	      9.06842071	     -0.82245838
      3.71500000	     -8.20352664	     -1.93392517	      1.43608637	     -0.73962915	     -0.01421793	      0.68838795	      4.41906858	      2.96973454	      8.44192750	    -16.12886295	      9.40953086	     -6.76333094	      6.90637518	     40.40420622	     -2.03323607	     -3.78081687	    -53.23898895	     -4.82588215	      0.28055112	      6.70000912	      4.57138226	      8.91822689	     -0.72532549
      3.72000000	     -8.11320357	     -1.85036618	      1.28934013	     -0.73306805	     -0.01481599	      0.68873966	      3.65484122	      2.89408559	      8.66225913	    -15.66387174	      9.57569408	     -6.83852433	      6.76764647	     40.50363934	     -1.99314179	     -3.68255073	    -51.88851991	     -4.59447527	      0.23879227	      6.25264909	      4.37900677	      8.77044113	     -0.56773492
      3.72500000	     -8.06623553	     -1.77741104	      1.15904503	     -0.72644530	     -0.01554512	      0.68905968	      2.93294616	      2.82070373	      8.85839039	    -15.20182976	      9.77082913	     -6.87666953	      6.57517537	     40.63152153	     -1.95332769	     -3.56656812	    -50.52118641	     -4.29611755	      0.20280302	      5.59432285	      4.24837265	      8.62246658	     -0.46541638
      3.73000000	     -8.04596894	     -1.70286579	      1.02458567	     -0.71981688	     -0.01634542	      0.68936846	      2.25447846	      2.73989831	      9.00182852	    -14.76346917	      9.94184833	     -6.90803599	      6.38129243	     40.75494761	     -1.90616578	     -3.41794837	    -49.10755680	     -3.98306476	      0.16563395	      4.90371001	      4.14588977	      8.47117574	     -0.35813956
      3.73500000	     -8.01756074	     -1.64259786	      0.89077610	     -0.71315304	     -0.01721710	      0.68965988	      1.55209366	      2.66547908	      9.17850601	    -14.30507197	     10.14983381	     -6.87297921	      6.17638725	     40.85488053	     -1.88536832	     -3.27944216	    -47.68872771	     -3.59580020	      0.18330670	      4.02320800	      4.03863227	      8.33558251	     -0.28906900
      3.74000000	     -8.17628902	     -1.66463915	      0.77520986	     -0.70651373	     -0.01841325	      0.68992882	      1.07795820	      2.67485654	      9.24448908	    -13.87895033	     10.32083651	     -6.87192771	      6.16063272	     41.15984834	     -1.91775649	     -3.01232619	    -46.24734598	     -3.42010739	      0.20442869	      3.88718273	      4.13705683	      8.28038855	     -0.16818666
      3.74500000	     -8.00640256	     -1.50704106	      0.63569646	     -0.69979518	     -0.01914832	      0.69022818	      0.21021889	      2.48844102	      9.40088885	    -13.39891818	     10.46710858	     -6.89551336	      5.95678027	     41.00538932	     -1.82082099	     -2.94005194	    -44.68704857	     -3.10781900	      0.07410699	      3.06470459	      3.86918921	      8.03113280	     -0.06259114
      3.75000000	     -7.96812278	     -1.37857629	      0.49986801	     -0.69303867	     -0.02012900	      0.69050803	     -0.50352678	      2.32332312	      9.50576035	    -12.94539106	     10.67869001	     -6.82313067	      5.75095730	     40.99305798	     -1.74210655	     -2.80654102	    -43.15996982	     -2.63503531	      0.07110271	      1.90315060	      3.75470051	      7.80283493	      0.03440684
      3.75500000	     -7.98130516	     -1.27966248	      0.36364066	     -0.68626289	     -0.02123181	      0.69076468	     -1.15197908	      2.18326766	      9.58070350	    -12.50765357	     10.87699876	     -6.71979839	      5.62903039	     41.02487906	     -1.69972454	     -2.66636253	    -41.63233594	     -2.12612367	      0.13062815	      0.79199202	      3.70116443	      7.61181471	      0.13144363
      3.76000000	     -8.01469936	     -1.18466657	      0.21731559	     -0.67947910	     -0.02240376	      0.69104673	     -1.77019592	      2.04417718	      9.65114257	    -12.08261846	     11.05555880	     -6.60796193	      5.58233219	     41.05543392	     -1.67404030	     -2.51960204	    -40.08229858	     -1.68070920	      0.19639008	     -0.04173211	      3.66825402	      7.41644988	      0.23368848
      3.76500000	     -8.02666118	     -1.06658779	      0.05054666	     -0.67268950	     -0.02357023	      0.69134943	     -2.39864856	      1.87446181	      9.71998165	    -11.67941279	     11.23350087	     -6.45084509	      5.56527574	     41.03226697	     -1.64459286	     -2.38822735	    -38.51540022	     -1.21939662	      0.29704635	     -0.86421189	      3.60861820	      7.19205300	      0.35385858
